<svg width="98" height="98" viewBox="0 0 98 98" fill="none" xmlns="http://www.w3.org/2000/svg" xmlns:xlink="http://www.w3.org/1999/xlink">
<path d="M73.168,29.409C74.73,27.847 74.73,25.314 73.168,23.752C71.606,22.19 69.073,22.19 67.511,23.752L73.168,29.409ZM23.753,67.51C22.191,69.072 22.191,71.605 23.753,73.167C25.315,74.729 27.847,74.729 29.41,73.167L23.753,67.51ZM67.511,23.752L23.753,67.51L29.41,73.167L73.168,29.409L67.511,23.752Z" transform="rotate(66.495 48.46 48.46)" fill="#1E1E1E"/>
<path d="M67.511,73.167C69.073,74.729 71.606,74.729 73.168,73.167C74.73,71.605 74.73,69.072 73.168,67.51L67.511,73.167ZM29.41,23.752C27.847,22.19 25.315,22.19 23.753,23.752C22.191,25.314 22.191,27.847 23.753,29.409L29.41,23.752ZM73.168,67.51L29.41,23.752L23.753,29.409L67.511,73.167L73.168,67.51Z" transform="rotate(66.495 48.46 48.46)" fill="#1E1E1E"/>
</svg>
