<svg width="98" height="98" viewBox="0 0 98 98" fill="none" xmlns="http://www.w3.org/2000/svg" xmlns:xlink="http://www.w3.org/1999/xlink">
<path d="M73.167,29.409C74.729,27.847 74.729,25.315 73.167,23.753C71.605,22.19 69.072,22.19 67.51,23.753L73.167,29.409ZM23.752,67.511C22.19,69.073 22.19,71.606 23.752,73.168C25.314,74.73 27.847,74.73 29.409,73.168L23.752,67.511ZM67.51,23.753L23.752,67.511L29.409,73.168L73.167,29.409L67.51,23.753Z" transform="rotate(66.495 48.46 48.46)" fill="url(#ps_0_16_327)"/>
<path d="M67.51,73.168C69.072,74.73 71.605,74.73 73.167,73.168C74.729,71.606 74.729,69.073 73.167,67.511L67.51,73.168ZM29.409,23.753C27.847,22.19 25.314,22.19 23.752,23.753C22.19,25.315 22.19,27.847 23.752,29.409L29.409,23.753ZM73.167,67.511L29.409,23.753L23.752,29.409L67.51,73.168L73.167,67.511Z" transform="rotate(66.495 48.46 48.46)" fill="url(#ps_0_16_328)"/>
<defs>
<linearGradient id="ps_0_16_327" x1="19.207" y1="29.244" x2="77.749" y2="67.621" gradientUnits="userSpaceOnUse">
<stop stop-color="#D2B938"/>
<stop offset="1" stop-color="#FCD515"/>
</linearGradient>
<linearGradient id="ps_0_16_328" x1="67.621" y1="19.171" x2="29.279" y2="77.658" gradientUnits="userSpaceOnUse">
<stop stop-color="#D2B938"/>
<stop offset="1" stop-color="#FCD515"/>
</linearGradient>
</defs>
</svg>
