<svg width="78" height="78" viewBox="0 0 78 78" fill="none" xmlns="http://www.w3.org/2000/svg" xmlns:xlink="http://www.w3.org/1999/xlink">
<path d="M61.724,21.099C63.286,19.537 63.286,17.004 61.724,15.442C60.162,13.88 57.63,13.88 56.067,15.442L61.724,21.099ZM15.442,56.067C13.88,57.63 13.88,60.162 15.442,61.724C17.004,63.286 19.536,63.286 21.099,61.724L15.442,56.067ZM56.067,15.442L15.442,56.067L21.099,61.724L61.724,21.099L56.067,15.442Z" transform="rotate(156.125 38.583 38.583)" fill="url(#ps_0_16_330)"/>
<path d="M56.067,61.724C57.63,63.286 60.162,63.286 61.724,61.724C63.286,60.162 63.286,57.63 61.724,56.067L56.067,61.724ZM21.099,15.442C19.536,13.88 17.004,13.88 15.442,15.442C13.88,17.004 13.88,19.537 15.442,21.099L21.099,15.442ZM61.724,56.067L21.099,15.442L15.442,21.099L56.067,61.724L61.724,56.067Z" transform="rotate(156.125 38.583 38.583)" fill="url(#ps_0_16_331)"/>
<defs>
<linearGradient id="ps_0_16_330" x1="31.891" y1="6.785" x2="45.334" y2="70.368" gradientUnits="userSpaceOnUse">
<stop stop-color="#D2B938"/>
<stop offset="1" stop-color="#FCD515"/>
</linearGradient>
<linearGradient id="ps_0_16_331" x1="70.368" y1="31.832" x2="6.845" y2="45.262" gradientUnits="userSpaceOnUse">
<stop stop-color="#D2B938"/>
<stop offset="1" stop-color="#FCD515"/>
</linearGradient>
</defs>
</svg>
