<svg width="98" height="98" viewBox="0 0 98 98" fill="none" xmlns="http://www.w3.org/2000/svg" xmlns:xlink="http://www.w3.org/1999/xlink">
<path d="M73.707,29.949C75.27,28.387 75.27,25.854 73.707,24.292C72.145,22.73 69.613,22.73 68.051,24.292L73.707,29.949ZM24.292,68.05C22.73,69.612 22.73,72.145 24.292,73.707C25.855,75.269 28.387,75.269 29.949,73.707L24.292,68.05ZM68.051,24.292L24.292,68.05L29.949,73.707L73.707,29.949L68.051,24.292Z" transform="rotate(66.495 49 49)" fill="url(#ps_0_16_324)"/>
<path d="M68.051,73.707C69.613,75.269 72.145,75.269 73.707,73.707C75.27,72.145 75.27,69.612 73.707,68.05L68.051,73.707ZM29.949,24.292C28.387,22.73 25.855,22.73 24.292,24.292C22.73,25.854 22.73,28.387 24.292,29.949L29.949,24.292ZM73.707,68.05L29.949,24.292L24.292,29.949L68.051,73.707L73.707,68.05Z" transform="rotate(66.495 49 49)" fill="url(#ps_0_16_325)"/>
<defs>
<linearGradient id="ps_0_16_324" x1="19.747" y1="29.783" x2="78.289" y2="68.161" gradientUnits="userSpaceOnUse">
<stop stop-color="#F9AE16"/>
<stop offset="1" stop-color="#FCD515"/>
</linearGradient>
<linearGradient id="ps_0_16_325" x1="68.161" y1="19.711" x2="29.82" y2="78.198" gradientUnits="userSpaceOnUse">
<stop stop-color="#F9AE16"/>
<stop offset="1" stop-color="#FCD515"/>
</linearGradient>
</defs>
</svg>
